# xmcd
#
# Track frame offsets: 
#        150
#        13747
#        19291
#        24450
#        38872
#        45957
#        55103
#        71355
#        88770
#        97588
#        108366
#        117245
#        134092
#        141836
#        151466
#        159492
#        174220
#        183232
#
# Disc length: 2639 seconds
#
# Revision: 4
# Processed by: cddbd v1.5.2PL0 Copyright (c) Steve Scherf et al.
# Submitted via: ExactAudioCopy v1.0b3
#
DISCID=e00a4d12
DTITLE=Cash, Johnny - A Boy Named Johnny
DYEAR=2001
DGENRE=Country
TTITLE0=I Walk The Line
TTITLE1=Cry Cry Cry
TTITLE2=Big River
TTITLE3=I Got A Woman
TTITLE4=Casey Jones
TTITLE5=Big River
TTITLE6=A Boy Named Sue
TTITLE7=The Ballad Of Ira Hayes
TTITLE8=Get Rhytm
TTITLE9=There You Go
TTITLE10=Pickin' Time
TTITLE11=Ballad Of The Harp Weaver
TTITLE12=Hey Porter
TTITLE13=Five Feet High And Rising
TTITLE14=I Got Stripes
TTITLE15=Goodbye, Little Darlin', Goodbye
TTITLE16=Luther Played The Boogie
TTITLE17=Bandana
EXTD=YEAR: 2001 ID3G: 2
EXTT0=
EXTT1=
EXTT2=
EXTT3=
EXTT4=
EXTT5=
EXTT6=
EXTT7=
EXTT8=
EXTT9=
EXTT10=
EXTT11=
EXTT12=
EXTT13=
EXTT14=
EXTT15=
EXTT16=
EXTT17=
PLAYORDER=
